
<svg width="38" height="38" viewBox="0 0 38 38" fill="none" xmlns="http://www.w3.org/2000/svg">
<g id="Favicon">
<path id="Vector" fill-rule="evenodd" clip-rule="evenodd" d="M24.2339 7.98045C24.5224 8.33864 24.6696 8.82198 24.9638 9.78869L31.3925 30.9069C29.0156 29.6738 26.4318 28.7845 23.7067 28.3048L19.521 14.16C19.4525 13.9286 19.24 13.7698 18.9986 13.7698C18.7566 13.7698 18.5437 13.9294 18.4757 14.1617L14.3407 28.2976C11.6031 28.7752 9.00738 29.6661 6.62036 30.9036L13.0805 9.78379H13.0806C13.3758 8.81877 13.5233 8.33626 13.8119 7.97871C14.0666 7.66307 14.398 7.41793 14.7743 7.26666C15.2006 7.09531 15.7052 7.09531 16.7143 7.09531H21.3285C22.339 7.09531 22.8443 7.09531 23.271 7.26702C23.6477 7.4186 23.9792 7.66423 24.2339 7.98045Z" fill="#264653"/>
</g>
</svg>
