<svg width="122" height="41" viewBox="0 0 122 41" fill="none" xmlns="http://www.w3.org/2000/svg">
<path fill-rule="evenodd" clip-rule="evenodd" d="M24.2339 10.9805C24.5224 11.3386 24.6696 11.822 24.9638 12.7887L31.3925 33.9069C29.0156 32.6738 26.4318 31.7845 23.7067 31.3048L19.521 17.16C19.4525 16.9286 19.24 16.7698 18.9986 16.7698C18.7566 16.7698 18.5437 16.9294 18.4757 17.1617L14.3407 31.2976C11.6031 31.7752 9.00738 32.6661 6.62036 33.9036L13.0805 12.7838H13.0806C13.3758 11.8188 13.5233 11.3363 13.8119 10.9787C14.0666 10.6631 14.398 10.4179 14.7743 10.2667C15.2006 10.0953 15.7052 10.0953 16.7143 10.0953H21.3285C22.339 10.0953 22.8443 10.0953 23.271 10.267C23.6477 10.4186 23.9792 10.6642 24.2339 10.9805Z" fill="#264653"/>
<path d="M43.7129 19.1211C44.9889 19.1211 45.9362 19.4076 46.5547 19.9805C47.1732 20.5534 47.4824 21.4681 47.4824 22.7246V30H46.3008L45.9883 28.418H45.9102C45.6107 28.8086 45.2982 29.1374 44.9727 29.4043C44.6471 29.6647 44.2695 29.8633 43.8398 30C43.4167 30.1302 42.8958 30.1953 42.2773 30.1953C41.6263 30.1953 41.0469 30.0814 40.5391 29.8535C40.0378 29.6257 39.6406 29.2806 39.3477 28.8184C39.0612 28.3561 38.918 27.7702 38.918 27.0605C38.918 25.9928 39.3411 25.1725 40.1875 24.5996C41.0339 24.0267 42.3229 23.7142 44.0547 23.6621L45.9004 23.584V22.9297C45.9004 22.0052 45.7018 21.3574 45.3047 20.9863C44.9076 20.6152 44.3477 20.4297 43.625 20.4297C43.0651 20.4297 42.5312 20.5111 42.0234 20.6738C41.5156 20.8366 41.0339 21.0286 40.5781 21.25L40.0801 20.0195C40.5618 19.7721 41.1152 19.5605 41.7402 19.3848C42.3652 19.209 43.0228 19.1211 43.7129 19.1211ZM45.8809 24.7266L44.25 24.7949C42.9154 24.847 41.9746 25.0651 41.4277 25.4492C40.8809 25.8333 40.6074 26.377 40.6074 27.0801C40.6074 27.6921 40.793 28.1445 41.1641 28.4375C41.5352 28.7305 42.0267 28.877 42.6387 28.877C43.5892 28.877 44.3672 28.6133 44.9727 28.0859C45.5781 27.5586 45.8809 26.7676 45.8809 25.7129V24.7266ZM57.7461 27.0703C57.7461 27.7539 57.5736 28.3301 57.2285 28.7988C56.89 29.2611 56.4017 29.6094 55.7637 29.8438C55.1322 30.0781 54.377 30.1953 53.498 30.1953C52.7493 30.1953 52.1016 30.1367 51.5547 30.0195C51.0078 29.9023 50.5293 29.7363 50.1191 29.5215V28.0273C50.5553 28.2422 51.0762 28.4375 51.6816 28.6133C52.2871 28.7891 52.9056 28.877 53.5371 28.877C54.4616 28.877 55.1322 28.7272 55.5488 28.4277C55.9655 28.1283 56.1738 27.7214 56.1738 27.207C56.1738 26.9141 56.0892 26.6569 55.9199 26.4355C55.7572 26.2077 55.4805 25.9896 55.0898 25.7812C54.6992 25.5664 54.1589 25.332 53.4688 25.0781C52.7852 24.8177 52.1927 24.5605 51.6914 24.3066C51.1966 24.0462 50.8125 23.7305 50.5391 23.3594C50.2721 22.9883 50.1387 22.5065 50.1387 21.9141C50.1387 21.0091 50.5033 20.3158 51.2324 19.834C51.9681 19.3457 52.9316 19.1016 54.123 19.1016C54.7676 19.1016 55.3698 19.1667 55.9297 19.2969C56.4961 19.4206 57.0234 19.5898 57.5117 19.8047L56.9648 21.1035C56.5221 20.9147 56.0501 20.7552 55.5488 20.625C55.0475 20.4948 54.5365 20.4297 54.0156 20.4297C53.2669 20.4297 52.6908 20.5534 52.2871 20.8008C51.89 21.0482 51.6914 21.3867 51.6914 21.8164C51.6914 22.1484 51.7826 22.4219 51.9648 22.6367C52.1536 22.8516 52.4531 23.0534 52.8633 23.2422C53.2734 23.431 53.8138 23.6523 54.4844 23.9062C55.1549 24.1536 55.7344 24.4108 56.2227 24.6777C56.7109 24.9382 57.0853 25.2572 57.3457 25.6348C57.6126 26.0059 57.7461 26.4844 57.7461 27.0703ZM63.8105 28.8672C64.0775 28.8672 64.3509 28.8444 64.6309 28.7988C64.9108 28.7533 65.1387 28.6979 65.3145 28.6328V29.8926C65.1257 29.9772 64.862 30.0488 64.5234 30.1074C64.1914 30.166 63.8659 30.1953 63.5469 30.1953C62.9805 30.1953 62.4661 30.0977 62.0039 29.9023C61.5417 29.7005 61.1706 29.362 60.8906 28.8867C60.6172 28.4115 60.4805 27.7539 60.4805 26.9141V20.5664H58.957V19.7754L60.4902 19.1406L61.1348 16.8164H62.1113V19.2969H65.2461V20.5664H62.1113V26.8652C62.1113 27.5358 62.2643 28.0371 62.5703 28.3691C62.8828 28.7012 63.2962 28.8672 63.8105 28.8672ZM72.3457 19.1016C72.5605 19.1016 72.7852 19.1146 73.0195 19.1406C73.2539 19.1602 73.4622 19.1895 73.6445 19.2285L73.4395 20.7324C73.2637 20.6868 73.0684 20.651 72.8535 20.625C72.6387 20.599 72.4368 20.5859 72.248 20.5859C71.8184 20.5859 71.4115 20.6738 71.0273 20.8496C70.6497 21.0189 70.3177 21.2663 70.0312 21.5918C69.7448 21.9108 69.5202 22.2982 69.3574 22.7539C69.1947 23.2031 69.1133 23.7044 69.1133 24.2578V30H67.4824V19.2969H68.8301L69.0059 21.2695H69.0742C69.2956 20.8724 69.5625 20.5111 69.875 20.1855C70.1875 19.8535 70.5488 19.5898 70.959 19.3945C71.3757 19.1992 71.8379 19.1016 72.3457 19.1016ZM84.8945 24.6289C84.8945 25.5078 84.7806 26.2923 84.5527 26.9824C84.3249 27.6725 83.9961 28.2552 83.5664 28.7305C83.1367 29.2057 82.6159 29.5703 82.0039 29.8242C81.3984 30.0716 80.7116 30.1953 79.9434 30.1953C79.2272 30.1953 78.5697 30.0716 77.9707 29.8242C77.3783 29.5703 76.8639 29.2057 76.4277 28.7305C75.998 28.2552 75.6628 27.6725 75.4219 26.9824C75.1875 26.2923 75.0703 25.5078 75.0703 24.6289C75.0703 23.457 75.2689 22.4609 75.666 21.6406C76.0632 20.8138 76.6296 20.1855 77.3652 19.7559C78.1074 19.3197 78.9896 19.1016 80.0117 19.1016C80.9883 19.1016 81.8411 19.3197 82.5703 19.7559C83.306 20.1921 83.8757 20.8236 84.2793 21.6504C84.6895 22.4707 84.8945 23.4635 84.8945 24.6289ZM76.75 24.6289C76.75 25.4883 76.8639 26.2337 77.0918 26.8652C77.3197 27.4967 77.6712 27.985 78.1465 28.3301C78.6217 28.6751 79.2337 28.8477 79.9824 28.8477C80.7246 28.8477 81.3333 28.6751 81.8086 28.3301C82.2904 27.985 82.6452 27.4967 82.873 26.8652C83.1009 26.2337 83.2148 25.4883 83.2148 24.6289C83.2148 23.776 83.1009 23.0404 82.873 22.4219C82.6452 21.7969 82.2936 21.3151 81.8184 20.9766C81.3431 20.638 80.7279 20.4688 79.9727 20.4688C78.8594 20.4688 78.0423 20.8366 77.5215 21.5723C77.0072 22.3079 76.75 23.3268 76.75 24.6289ZM89.3184 14.8047V18.6035C89.3184 19.0397 89.3053 19.4629 89.2793 19.873C89.2598 20.2832 89.2435 20.6022 89.2305 20.8301H89.3184C89.6113 20.3483 90.0345 19.9414 90.5879 19.6094C91.1413 19.2773 91.8477 19.1113 92.707 19.1113C94.0482 19.1113 95.1159 19.5768 95.9102 20.5078C96.7109 21.4323 97.1113 22.8092 97.1113 24.6387C97.1113 25.8431 96.929 26.8587 96.5645 27.6855C96.1999 28.5124 95.6855 29.1374 95.0215 29.5605C94.3574 29.9837 93.5729 30.1953 92.668 30.1953C91.8216 30.1953 91.125 30.0391 90.5781 29.7266C90.0378 29.4076 89.6211 29.0202 89.3281 28.5645H89.2012L88.8691 30H87.6973V14.8047H89.3184ZM92.4434 20.4688C91.6686 20.4688 91.0534 20.6217 90.5977 20.9277C90.1419 21.2272 89.8132 21.6829 89.6113 22.2949C89.416 22.9004 89.3184 23.6686 89.3184 24.5996V24.6875C89.3184 26.0352 89.543 27.0671 89.9922 27.7832C90.4414 28.4928 91.2585 28.8477 92.4434 28.8477C93.4395 28.8477 94.1849 28.4831 94.6797 27.7539C95.181 27.0247 95.4316 25.9831 95.4316 24.6289C95.4316 23.2487 95.1842 22.2103 94.6895 21.5137C94.2012 20.8171 93.4525 20.4688 92.4434 20.4688ZM108.781 19.2969V30H107.453L107.219 28.4961H107.131C106.91 28.8672 106.623 29.1797 106.271 29.4336C105.92 29.6875 105.523 29.8763 105.08 30C104.644 30.1302 104.178 30.1953 103.684 30.1953C102.837 30.1953 102.128 30.0586 101.555 29.7852C100.982 29.5117 100.549 29.0885 100.256 28.5156C99.9694 27.9427 99.8262 27.207 99.8262 26.3086V19.2969H101.467V26.1914C101.467 27.0833 101.669 27.7507 102.072 28.1934C102.476 28.6296 103.091 28.8477 103.918 28.8477C104.712 28.8477 105.344 28.6979 105.812 28.3984C106.288 28.099 106.63 27.6595 106.838 27.0801C107.046 26.4941 107.15 25.778 107.15 24.9316V19.2969H108.781ZM113.84 30H112.209V14.8047H113.84V30Z" fill="#264653"/>
</svg>
